<svg width="150" height="100" viewBox="0 0 800 600" fill="none" xmlns="http://www.w3.org/2000/svg" data-reactroot="">
<path fill-rule="evenodd" clip-rule="evenodd" d="M289.594 71.0568C289.594 46.1726 309.766 26 334.65 26H465.353C490.238 26 510.41 46.1726 510.41 71.0568V120.267C510.41 129.436 502.977 136.869 493.808 136.869C484.64 136.869 477.207 129.436 477.207 120.267V71.0568C477.207 64.5104 471.9 59.2035 465.353 59.2035H334.65C328.104 59.2035 322.797 64.5104 322.797 71.0568V120.267C322.797 129.436 315.364 136.869 306.195 136.869C297.027 136.869 289.594 129.436 289.594 120.267V71.0568Z" fill="#202121"></path>
<path d="M32.2343 574.032H767.766C780.045 574.032 790 564.077 790 551.798V133.299C790 121.019 780.045 111.065 767.766 111.065H32.2343C19.9546 111.065 10 121.019 10 133.299V551.798C10 564.077 19.9546 574.032 32.2343 574.032Z" fill="#282a2a"></path>
<path fill-rule="evenodd" clip-rule="evenodd" d="M764.625 142.841C768.452 140.042 773.824 140.876 776.622 144.704C779.421 148.531 778.587 153.902 774.76 156.701L769.692 149.771L764.625 142.841ZM33.4959 144.582C36.3616 140.805 41.7469 140.065 45.5244 142.931L40.3357 149.771L35.1469 156.611C31.3694 153.745 30.6302 148.36 33.4959 144.582ZM764.623 142.842C764.624 142.841 764.625 142.841 769.692 149.771C774.76 156.701 774.758 156.702 774.755 156.704L774.549 156.854C774.413 156.954 774.21 157.102 773.943 157.296C773.41 157.684 772.619 158.258 771.585 159.005C769.518 160.5 766.479 162.689 762.582 165.473C754.788 171.04 743.557 178.987 729.795 188.521C702.277 207.585 664.603 233.018 624.014 258.463C583.456 283.89 539.838 309.424 500.462 328.631C480.776 338.233 462.013 346.322 445.13 352.026C428.366 357.689 412.907 361.193 400 361.193C387.081 361.193 371.77 357.684 355.259 352.011C338.636 346.3 320.254 338.203 301.03 328.594C262.58 309.375 220.206 283.83 180.896 258.397C141.556 232.945 105.131 207.507 78.5509 188.44C65.2572 178.904 54.4174 170.955 46.8962 165.386C43.1355 162.602 40.204 160.413 38.2099 158.917C37.2128 158.169 36.45 157.595 35.935 157.206C35.6775 157.012 35.482 156.864 35.35 156.764L35.1511 156.614C35.1485 156.612 35.1469 156.611 40.3357 149.771C45.5244 142.931 45.5249 142.931 45.5264 142.933L45.7096 143.071C45.8354 143.166 46.0247 143.31 46.276 143.499C46.7784 143.878 47.5283 144.443 48.512 145.181C50.4796 146.656 53.3826 148.825 57.1132 151.587C64.5747 157.111 75.3446 165.009 88.5593 174.488C114.996 193.453 151.184 218.724 190.223 243.981C229.293 269.258 271.067 294.422 308.707 313.235C327.527 322.642 345.175 330.391 360.838 335.773C376.615 341.193 389.846 344.023 400 344.023C410.165 344.023 423.563 341.188 439.634 335.758C455.586 330.369 473.637 322.611 492.935 313.198C531.528 294.373 574.566 269.198 614.894 243.915C655.192 218.652 692.637 193.375 720.017 174.407C733.703 164.925 744.866 157.026 752.603 151.5C756.471 148.737 759.482 146.568 761.523 145.092C762.544 144.354 763.322 143.789 763.844 143.41C764.105 143.22 764.301 143.077 764.432 142.981L764.614 142.848L764.623 142.842Z" fill="#515454"></path>
</svg>