<svg width="24" height="24" viewBox="0 0 24 24" fill="none" xmlns="http://www.w3.org/2000/svg" data-reactroot="">
<path stroke-linejoin="round" stroke-linecap="round" stroke-miterlimit="10" stroke-width="1" stroke="#a0a0a0" d="M17.23 2L14.63 4.61"></path>
<path stroke-linejoin="round" stroke-linecap="round" stroke-miterlimit="10" stroke-width="1" stroke="#a0a0a0" d="M9.37002 4.61L6.77002 2"></path>
<path stroke-linejoin="round" stroke-linecap="round" stroke-miterlimit="10" stroke-width="1" stroke="#a0a0a0" d="M18 12.98H22"></path>
<path stroke-linejoin="round" stroke-linecap="round" stroke-miterlimit="10" stroke-width="1" stroke="#a0a0a0" d="M2 12.98H6"></path>
<path stroke-linejoin="round" stroke-linecap="round" stroke-miterlimit="10" stroke-width="1" stroke="#a0a0a0" d="M20.71 6.44L17.71 8.17"></path>
<path stroke-linejoin="round" stroke-linecap="round" stroke-miterlimit="10" stroke-width="1" stroke="#a0a0a0" d="M20.65 19.72L17.65 18"></path>
<path stroke-linejoin="round" stroke-linecap="round" stroke-miterlimit="10" stroke-width="1" stroke="#a0a0a0" d="M6.28998 8.17L3.28998 6.44"></path>
<path stroke-linejoin="round" stroke-linecap="round" stroke-miterlimit="10" stroke-width="1" stroke="#a0a0a0" d="M6.34998 18L3.34998 19.72"></path>
<path stroke-linejoin="round" stroke-linecap="round" stroke-miterlimit="10" stroke-width="1" stroke="#a0a0a0" fill="none" d="M12 4C15.31 4 18 6.69 18 10V16C18 19.31 15.31 22 12 22C8.69 22 6 19.31 6 16V10C6 6.69 8.69 4 12 4Z"></path>
<path stroke-linejoin="round" stroke-linecap="round" stroke-miterlimit="10" stroke-width="1" stroke="#a0a0a0" fill="none" d="M12 4C9.32003 4 7.04003 5.77 6.28003 8.19C9.74003 10.61 14.4 10.59 17.72 8.2C16.96 5.77 14.69 4 12 4Z"></path>
<path stroke-linejoin="round" stroke-linecap="round" stroke-width="1" stroke="#a0a0a0" d="M10.25 13.5L13.75 17"></path>
<path stroke-linejoin="round" stroke-linecap="round" stroke-width="1" stroke="#a0a0a0" d="M13.75 13.5L10.25 17"></path>
</svg>
