<svg id="SvgjsSvg1006" width="3709.1099633206077px" height="5000px" xmlns="http://www.w3.org/2000/svg" version="1.1" xmlns:xlink="http://www.w3.org/1999/xlink" xmlns:svgjs="http://svgjs.com/svgjs" viewBox="0 0 154.84375 208.734375"><defs id="SvgjsDefs1007"></defs><g id="SvgjsG1009" transform="rotate(0 77.421875 77.5)"><svg height="155" viewBox="0 0 150.18270874023438 150.3334197998047" xmlns="http://www.w3.org/2000/svg" version="1.1" xmlns:xlink="http://www.w3.org/1999/xlink" xmlns:svgjs="http://svgjs.com/svgjs" preserveAspectRatio="none" width="154.84375" x="0" y="0"><g><svg data-type="color" viewBox="24.797651290893555 26.232967376708984 150.18270874023438 150.3334197998047" height="150.3334197998047" width="150.18270874023438" xmlns="http://www.w3.org/2000/svg" data-name="Layer 1">
    <g>
        <path data-color="1" d="M126.023 116.364a11.074 11.074 0 0 1 11.077 11.084c-.006 6.455-.018 13.427-.045 13.942a37.141 37.141 0 0 1-74.178 0c-.027-.514-.04-7.487-.046-13.942A11.074 11.074 0 0 1 73.9 116.364a11.074 11.074 0 0 1 11.074 11.063c0 5.21.013 10.668.021 12.539 0 .3.01.593.038.89a15 15 0 0 0 29.856 0c.028-.3.036-.591.037-.889.009-1.869.016-7.327.021-12.538a11.074 11.074 0 0 1 11.074-11.063zm-11.089 23.913v-.042zm-29.944-.037z" fill="#71db77"></path>
        <path data-color="2" d="M114.778 75.194a11.074 11.074 0 0 1 11.084-11.074c6.455.006 13.428.018 13.942.045a37.141 37.141 0 0 1 0 74.178c-.515.027-7.488.04-13.943.046a11.074 11.074 0 0 1-11.084-11.074 11.074 11.074 0 0 1 11.063-11.074c5.211 0 10.668-.013 12.539-.021.3 0 .594-.01.891-.038a15 15 0 0 0 0-29.856 9.818 9.818 0 0 0-.889-.037c-1.869-.009-7.327-.016-12.538-.021a11.075 11.075 0 0 1-11.063-11.074zm23.913 11.089h-.041zm-.037 29.944z" fill="#c8c8c8"></path>
        <path data-color="3" d="M73.848 86.5a10.95 10.95 0 0 1-11.162-10.851c-.045-6.455-.088-13.427-.065-13.942a37.141 37.141 0 0 1 74.176-.589c.031.514.1 7.487.156 13.942a11.073 11.073 0 0 1-10.986 11.171 11.072 11.072 0 0 1-11.161-10.975c-.047-5.21-.1-10.667-.121-12.538 0-.3-.014-.594-.044-.89a15 15 0 0 0-29.856.239c-.025.3-.031.592-.03.889.006 1.87.042 7.327.079 12.538a10.948 10.948 0 0 1-10.986 11zm10.9-23.852v.041zm29.944-.2v-.035z" fill="#5c5c5c"></path>
        <path data-color="2" d="M62.828 127.448a11.074 11.074 0 0 1 10.389-11.061c-4.985 0-10.034-.012-11.818-.02-.3 0-.592-.01-.888-.037a15 15 0 0 1 0-29.857c.3-.028.592-.036.89-.037 1.872-.009 7.329-.016 12.539-.021A11.074 11.074 0 0 0 85 75.341a11.073 11.073 0 0 0-11.083-11.074c-6.456.006-13.429.018-13.943.045a37.141 37.141 0 0 0 0 74.178c.19.01 1.267.018 2.874.025-.01-2.734-.016-7.003-.02-11.067z" fill="#c8c8c8"></path>
    </g>
</svg></g><defs id="SvgjsDefs1008"></defs></svg></g><g id="SvgjsG1011" transform="rotate(0 77.421875 191.3671875)"><svg xmlns="http://www.w3.org/2000/svg" xmlns:xlink="http://www.w3.org/1999/xlink" width="128.125" viewBox="0.42000001668930054 9.0600004196167 128.1300048828125 28.75" overflow="visible" style="overflow: visible;" transform="" version="1.1" xmlns:svgjs="http://svgjs.com/svgjs" preserveAspectRatio="none" height="28.734375" x="13.359375" y="177" fill="#000000" stroke="none"><path stroke="none" fill="#71db77" d="M15.66 20.05L14.33 22.12L14.33 22.12Q14.10 22.48 13.84 22.63L13.84 22.63L13.84 22.63Q13.58 22.78 13.19 22.78L13.19 22.78L13.19 22.78Q12.77 22.78 12.35 22.60L12.35 22.60L12.35 22.60Q11.93 22.42 11.45 22.21L11.45 22.21L11.45 22.21Q10.96 22.00 10.36 21.82L10.36 21.82L10.36 21.82Q9.75 21.64 8.97 21.64L8.97 21.64L8.97 21.64Q7.85 21.64 7.25 22.07L7.25 22.07L7.25 22.07Q6.65 22.50 6.65 23.26L6.65 23.26L6.65 23.26Q6.65 23.81 7.04 24.17L7.04 24.17L7.04 24.17Q7.43 24.53 8.07 24.80L8.07 24.80L8.07 24.80Q8.72 25.08 9.54 25.33L9.54 25.33L9.54 25.33Q10.36 25.57 11.21 25.88L11.21 25.88L11.21 25.88Q12.06 26.18 12.88 26.59L12.88 26.59L12.88 26.59Q13.70 27.00 14.34 27.60L14.34 27.60L14.34 27.60Q14.99 28.20 15.38 29.05L15.38 29.05L15.38 29.05Q15.77 29.91 15.77 31.10L15.77 31.10L15.77 31.10Q15.77 32.57 15.24 33.80L15.24 33.80L15.24 33.80Q14.71 35.04 13.65 35.93L13.65 35.93L13.65 35.93Q12.60 36.82 11.05 37.32L11.05 37.32L11.05 37.32Q9.50 37.81 7.49 37.81L7.49 37.81L7.49 37.81Q6.48 37.81 5.47 37.62L5.47 37.62L5.47 37.62Q4.46 37.43 3.52 37.11L3.52 37.11L3.52 37.11Q2.58 36.78 1.79 36.34L1.79 36.34L1.79 36.34Q0.99 35.89 0.42 35.38L0.42 35.38L1.79 33.21L1.79 33.21Q2.03 32.83 2.38 32.61L2.38 32.61L2.38 32.61Q2.72 32.40 3.27 32.40L3.27 32.40L3.27 32.40Q3.78 32.40 4.19 32.62L4.19 32.62L4.19 32.62Q4.60 32.85 5.07 33.12L5.07 33.12L5.07 33.12Q5.55 33.38 6.18 33.61L6.18 33.61L6.18 33.61Q6.82 33.84 7.79 33.84L7.79 33.84L7.79 33.84Q8.47 33.84 8.95 33.70L8.95 33.70L8.95 33.70Q9.42 33.55 9.71 33.31L9.71 33.31L9.71 33.31Q9.99 33.06 10.13 32.76L10.13 32.76L10.13 32.76Q10.26 32.45 10.26 32.13L10.26 32.13L10.26 32.13Q10.26 31.54 9.86 31.16L9.86 31.16L9.86 31.16Q9.46 30.78 8.82 30.50L8.82 30.50L8.82 30.50Q8.17 30.23 7.34 29.99L7.34 29.99L7.34 29.99Q6.52 29.75 5.66 29.45L5.66 29.45L5.66 29.45Q4.81 29.15 3.98 28.72L3.98 28.72L3.98 28.72Q3.15 28.29 2.51 27.64L2.51 27.64L2.51 27.64Q1.86 26.98 1.46 26.03L1.46 26.03L1.46 26.03Q1.06 25.08 1.06 23.73L1.06 23.73L1.06 23.73Q1.06 22.48 1.55 21.35L1.55 21.35L1.55 21.35Q2.03 20.22 3.00 19.36L3.00 19.36L3.00 19.36Q3.97 18.51 5.43 18.00L5.43 18.00L5.43 18.00Q6.90 17.50 8.85 17.50L8.85 17.50L8.85 17.50Q9.92 17.50 10.92 17.69L10.92 17.69L10.92 17.69Q11.91 17.88 12.79 18.22L12.79 18.22L12.79 18.22Q13.66 18.56 14.38 19.03L14.38 19.03L14.38 19.03Q15.11 19.49 15.66 20.05L15.66 20.05ZM25.92 37.81L25.92 37.81L25.92 37.81Q24.51 37.81 23.44 37.40L23.44 37.40L23.44 37.40Q22.36 36.99 21.63 36.24L21.63 36.24L21.63 36.24Q20.90 35.49 20.52 34.43L20.52 34.43L20.52 34.43Q20.14 33.36 20.14 32.05L20.14 32.05L20.14 21.87L18.47 21.87L18.47 21.87Q18.01 21.87 17.69 21.57L17.69 21.57L17.69 21.57Q17.37 21.28 17.37 20.71L17.37 20.71L17.37 18.41L20.50 17.80L21.66 13.00L21.66 13.00Q21.89 12.08 22.95 12.08L22.95 12.08L26.03 12.08L26.03 17.84L30.82 17.84L30.82 21.87L26.03 21.87L26.03 31.65L26.03 31.65Q26.03 32.34 26.36 32.78L26.36 32.78L26.36 32.78Q26.70 33.23 27.32 33.23L27.32 33.23L27.32 33.23Q27.64 33.23 27.86 33.16L27.86 33.16L27.86 33.16Q28.08 33.10 28.24 33.01L28.24 33.01L28.24 33.01Q28.41 32.93 28.55 32.86L28.55 32.86L28.55 32.86Q28.69 32.79 28.88 32.79L28.88 32.79L28.88 32.79Q29.15 32.79 29.31 32.92L29.31 32.92L29.31 32.92Q29.47 33.04 29.64 33.31L29.64 33.31L31.43 36.10L31.43 36.10Q30.29 36.95 28.86 37.38L28.86 37.38L28.86 37.38Q27.44 37.81 25.92 37.81ZM42.98 17.50L42.98 17.50L42.98 17.50Q45.22 17.50 47.06 18.20L47.06 18.20L47.06 18.20Q48.91 18.91 50.23 20.22L50.23 20.22L50.23 20.22Q51.55 21.53 52.28 23.40L52.28 23.40L52.28 23.40Q53.01 25.27 53.01 27.61L53.01 27.61L53.01 27.61Q53.01 29.96 52.28 31.85L52.28 31.85L52.28 31.85Q51.55 33.74 50.23 35.06L50.23 35.06L50.23 35.06Q48.91 36.38 47.06 37.10L47.06 37.10L47.06 37.10Q45.22 37.81 42.98 37.81L42.98 37.81L42.98 37.81Q40.72 37.81 38.86 37.10L38.86 37.10L38.86 37.10Q37.01 36.38 35.67 35.06L35.67 35.06L35.67 35.06Q34.33 33.74 33.60 31.85L33.60 31.85L33.60 31.85Q32.87 29.96 32.87 27.61L32.87 27.61L32.87 27.61Q32.87 25.27 33.60 23.40L33.60 23.40L33.60 23.40Q34.33 21.53 35.67 20.22L35.67 20.22L35.67 20.22Q37.01 18.91 38.86 18.20L38.86 18.20L38.86 18.20Q40.72 17.50 42.98 17.50ZM42.98 33.44L42.98 33.44L42.98 33.44Q45.01 33.44 45.97 32.01L45.97 32.01L45.97 32.01Q46.93 30.57 46.93 27.65L46.93 27.65L46.93 27.65Q46.93 24.72 45.97 23.29L45.97 23.29L45.97 23.29Q45.01 21.87 42.98 21.87L42.98 21.87L42.98 21.87Q40.89 21.87 39.92 23.29L39.92 23.29L39.92 23.29Q38.95 24.72 38.95 27.65L38.95 27.65L38.95 27.65Q38.95 30.57 39.92 32.01L39.92 32.01L39.92 32.01Q40.89 33.44 42.98 33.44ZM72.01 20.41L70.45 22.48L70.45 22.48Q70.19 22.80 69.94 22.99L69.94 22.99L69.94 22.99Q69.69 23.18 69.24 23.18L69.24 23.18L69.24 23.18Q68.80 23.18 68.45 22.97L68.45 22.97L68.45 22.97Q68.10 22.76 67.66 22.51L67.66 22.51L67.66 22.51Q67.22 22.25 66.63 22.04L66.63 22.04L66.63 22.04Q66.04 21.83 65.17 21.83L65.17 21.83L65.17 21.83Q64.09 21.83 63.30 22.23L63.30 22.23L63.30 22.23Q62.51 22.63 62.00 23.37L62.00 23.37L62.00 23.37Q61.48 24.11 61.24 25.18L61.24 25.18L61.24 25.18Q60.99 26.26 60.99 27.61L60.99 27.61L60.99 27.61Q60.99 30.44 62.08 31.96L62.08 31.96L62.08 31.96Q63.17 33.48 65.09 33.48L65.09 33.48L65.09 33.48Q66.12 33.48 66.72 33.22L66.72 33.22L66.72 33.22Q67.32 32.97 67.73 32.65L67.73 32.65L67.73 32.65Q68.15 32.34 68.50 32.07L68.50 32.07L68.50 32.07Q68.86 31.81 69.39 31.81L69.39 31.81L69.39 31.81Q70.09 31.81 70.45 32.32L70.45 32.32L72.16 34.43L72.16 34.43Q71.25 35.47 70.24 36.13L70.24 36.13L70.24 36.13Q69.24 36.78 68.18 37.15L68.18 37.15L68.18 37.15Q67.13 37.52 66.06 37.67L66.06 37.67L66.06 37.67Q65.00 37.81 63.99 37.81L63.99 37.81L63.99 37.81Q62.19 37.81 60.54 37.13L60.54 37.13L60.54 37.13Q58.90 36.44 57.66 35.14L57.66 35.14L57.66 35.14Q56.41 33.84 55.68 31.94L55.68 31.94L55.68 31.94Q54.95 30.04 54.95 27.61L54.95 27.61L54.95 27.61Q54.95 25.48 55.58 23.63L55.58 23.63L55.58 23.63Q56.22 21.77 57.47 20.42L57.47 20.42L57.47 20.42Q58.71 19.06 60.54 18.28L60.54 18.28L60.54 18.28Q62.38 17.50 64.79 17.50L64.79 17.50L64.79 17.50Q67.11 17.50 68.86 18.24L68.86 18.24L68.86 18.24Q70.60 18.98 72.01 20.41L72.01 20.41ZM74.71 9.06L80.60 9.06L80.60 25.00L81.47 25.00L81.47 25.00Q82.02 25.00 82.32 24.85L82.32 24.85L82.32 24.85Q82.61 24.70 82.88 24.30L82.88 24.30L86.60 18.75L86.60 18.75Q86.92 18.26 87.37 18.03L87.37 18.03L87.37 18.03Q87.82 17.80 88.50 17.80L88.50 17.80L93.90 17.80L88.81 24.81L88.81 24.81Q88.44 25.31 88.02 25.69L88.02 25.69L88.02 25.69Q87.59 26.07 87.10 26.37L87.10 26.37L87.10 26.37Q87.95 27.02 88.58 28.08L88.58 28.08L94.13 37.51L88.81 37.51L88.81 37.51Q88.14 37.51 87.66 37.29L87.66 37.29L87.66 37.29Q87.17 37.07 86.87 36.52L86.87 36.52L83.14 29.55L83.14 29.55Q82.88 29.07 82.59 28.93L82.59 28.93L82.59 28.93Q82.31 28.79 81.74 28.79L81.74 28.79L80.60 28.79L80.60 37.51L74.71 37.51L74.71 9.06ZM103.89 17.50L103.89 17.50L103.89 17.50Q105.85 17.50 107.47 18.11L107.47 18.11L107.47 18.11Q109.10 18.71 110.27 19.87L110.27 19.87L110.27 19.87Q111.44 21.03 112.09 22.71L112.09 22.71L112.09 22.71Q112.75 24.40 112.75 26.52L112.75 26.52L112.75 26.52Q112.75 27.19 112.69 27.61L112.69 27.61L112.69 27.61Q112.63 28.02 112.48 28.27L112.48 28.27L112.48 28.27Q112.33 28.52 112.07 28.61L112.07 28.61L112.07 28.61Q111.81 28.71 111.42 28.71L111.42 28.71L100.05 28.71L100.05 28.71Q100.34 31.18 101.56 32.29L101.56 32.29L101.56 32.29Q102.77 33.40 104.69 33.40L104.69 33.40L104.69 33.40Q105.72 33.40 106.46 33.16L106.46 33.16L106.46 33.16Q107.20 32.91 107.78 32.60L107.78 32.60L107.78 32.60Q108.36 32.30 108.84 32.05L108.84 32.05L108.84 32.05Q109.33 31.81 109.86 31.81L109.86 31.81L109.86 31.81Q110.56 31.81 110.92 32.32L110.92 32.32L112.63 34.43L112.63 34.43Q111.72 35.47 110.67 36.13L110.67 36.13L110.67 36.13Q109.61 36.78 108.50 37.15L108.50 37.15L108.50 37.15Q107.39 37.52 106.28 37.67L106.28 37.67L106.28 37.67Q105.17 37.81 104.16 37.81L104.16 37.81L104.16 37.81Q102.09 37.81 100.27 37.14L100.27 37.14L100.27 37.14Q98.46 36.46 97.10 35.13L97.10 35.13L97.10 35.13Q95.74 33.80 94.95 31.82L94.95 31.82L94.95 31.82Q94.16 29.85 94.16 27.23L94.16 27.23L94.16 27.23Q94.16 25.25 94.84 23.48L94.84 23.48L94.84 23.48Q95.51 21.72 96.78 20.39L96.78 20.39L96.78 20.39Q98.04 19.06 99.84 18.28L99.84 18.28L99.84 18.28Q101.63 17.50 103.89 17.50ZM104.01 21.57L104.01 21.57L104.01 21.57Q102.31 21.57 101.37 22.52L101.37 22.52L101.37 22.52Q100.42 23.48 100.11 25.29L100.11 25.29L107.46 25.29L107.46 25.29Q107.46 24.59 107.28 23.92L107.28 23.92L107.28 23.92Q107.10 23.26 106.69 22.73L106.69 22.73L106.69 22.73Q106.29 22.21 105.62 21.89L105.62 21.89L105.62 21.89Q104.96 21.57 104.01 21.57ZM123.04 37.81L123.04 37.81L123.04 37.81Q121.64 37.81 120.56 37.40L120.56 37.40L120.56 37.40Q119.49 36.99 118.76 36.24L118.76 36.24L118.76 36.24Q118.03 35.49 117.65 34.43L117.65 34.43L117.65 34.43Q117.27 33.36 117.27 32.05L117.27 32.05L117.27 21.87L115.60 21.87L115.60 21.87Q115.14 21.87 114.82 21.57L114.82 21.57L114.82 21.57Q114.49 21.28 114.49 20.71L114.49 20.71L114.49 18.41L117.63 17.80L118.79 13.00L118.79 13.00Q119.02 12.08 120.08 12.08L120.08 12.08L123.16 12.08L123.16 17.84L127.95 17.84L127.95 21.87L123.16 21.87L123.16 31.65L123.16 31.65Q123.16 32.34 123.49 32.78L123.49 32.78L123.49 32.78Q123.82 33.23 124.45 33.23L124.45 33.23L124.45 33.23Q124.77 33.23 124.99 33.16L124.99 33.16L124.99 33.16Q125.21 33.10 125.37 33.01L125.37 33.01L125.37 33.01Q125.53 32.93 125.68 32.86L125.68 32.86L125.68 32.86Q125.82 32.79 126.01 32.79L126.01 32.79L126.01 32.79Q126.27 32.79 126.44 32.92L126.44 32.92L126.44 32.92Q126.60 33.04 126.77 33.31L126.77 33.31L128.55 36.10L128.55 36.10Q127.41 36.95 125.99 37.38L125.99 37.38L125.99 37.38Q124.56 37.81 123.04 37.81Z" transform="rotate(0 64.48500245809555 23.4350004196167)"></path><defs id="SvgjsDefs1010"></defs></svg></g></svg>